<svg xmlns="http://www.w3.org/2000/svg" viewBox="0 0 580 680" width="580" height="680" xmlns:c2pa="http://c2pa.org/manifest"><metadata><c2pa:manifest>AAAWgmp1bWIAAAAeanVtZGMycGEAEQAQgAAAqgA4m3EDYzJwYQAAABZcanVtYgAAAEdqdW1kYzJtYQARABCAAACqADibcQN1cm46YzJwYTpkNGE0MTNiMC04ZWZiLTQ1MWYtOGRkZC0yZmRkMzRiNzE1MWQAAAADl2p1bWIAAAApanVtZGMyYXMAEQAQgAAAqgA4m3EDYzJwYS5hc3NlcnRpb25zAAAAALxqdW1iAAAARGp1bWRjYm9yABEAEIAAAKoAOJtxE2MycGEuaW5ncmVkaWVudC52MwAAAAAYYzJzaKUzQhpgp4gjvGGGpkPDS6QAAABwY2JvcqNpZGM6Zm9ybWF0bWltYWdlL3N2Zyt4bWxqaW5zdGFuY2VJRHgseG1wOmlpZDphY2RmNTgwMi00YjE5LTRkZTktYjNkYS1kMDJmYWUwZDlhM2RscmVsYXRpb25zaGlwaHBhcmVudE9mAAAB4mp1bWIAAABBanVtZGNib3IAEQAQgAAAqgA4m3ETYzJwYS5hY3Rpb25zLnYyAAAAABhjMnNodFUGo5NikguzwdlO4dQVuwAAAZljYm9yomdhY3Rpb25zgqJmYWN0aW9ua2MycGEub3BlbmVkanBhcmFtZXRlcnOha2luZ3JlZGllbnRzgaJjdXJseC1zZWxmI2p1bWJmPWMycGEuYXNzZXJ0aW9ucy9jMnBhLmluZ3JlZGllbnQudjNkaGFzaFggPIzhkt3vgl/t0Ax3bcyDC2nfB9vqgUQ2gOgom2JEjlmkZmFjdGlvbngdY29tLmFudGhyb3BpYy5jbGF1ZGUucHJvdmlkZWRqcGFyYW1ldGVyc6F4H2NvbS5hbnRocm9waWMub3JpZ2luLWNvbmZpZGVuY2VndW5rbm93bmtkZXNjcmlwdGlvbnhmQ2xhdWRlIHByb3ZpZGVkIHRoaXMgZmlsZSBhdCB0aGUgcmVxdWVzdCBvZiBhIHVzZXIgYW5kIG1heSBoYXZlIGNyZWF0ZWQgb3IgbW9kaWZpZWQgdGhlIGZpbGUgY29udGVudHMubXNvZnR3YXJlQWdlbnShZG5hbWVmQ2xhdWRlcmFsbEFjdGlvbnNJbmNsdWRlZPUAAADIanVtYgAAAEBqdW1kY2JvcgARABCAAACqADibcRNjMnBhLmhhc2guZGF0YQAAAAAYYzJzaMai/8NIbRw2ictKq5fbR4wAAACAY2JvcqVjYWxnZnNoYTI1NmNwYWRNAAAAAAAAAAAAAAAAAGRoYXNoWCBfPt/z0mq2WH7dS60yOYifq86yzSHS7HlaR2tcF/CaWmRuYW1lbmp1bWJmIG1hbmlmZXN0amV4Y2x1c2lvbnOBomVzdGFydBiWZmxlbmd0aBkeBAAAAj5qdW1iAAAAJ2p1bWRjMmNsABEAEIAAAKoAOJtxA2MycGEuY2xhaW0udjIAAAACD2Nib3KlY2FsZ2ZzaGEyNTZpc2lnbmF0dXJleE1zZWxmI2p1bWJmPS9jMnBhL3VybjpjMnBhOmQ0YTQxM2IwLThlZmItNDUxZi04ZGRkLTJmZGQzNGI3MTUxZC9jMnBhLnNpZ25hdHVyZWppbnN0YW5jZUlEeCx4bXA6aWlkOjA3ZWQwZjNmLTIxYmUtNGYwYi05OWUwLTcyMjY3YTE4YzkwMXJjcmVhdGVkX2Fzc2VydGlvbnODomN1cmx4LXNlbGYjanVtYmY9YzJwYS5hc3NlcnRpb25zL2MycGEuaW5ncmVkaWVudC52M2RoYXNoWCA8jOGS3e+CX+3QDHdtzIMLad8H2+qBRDaA6CibYkSOWaJjdXJseCpzZWxmI2p1bWJmPWMycGEuYXNzZXJ0aW9ucy9jMnBhLmFjdGlvbnMudjJkaGFzaFgg7QSbHUfPdfz1qac+AP1PEMmftBThYK4l61lM3tSTKHqiY3VybHgpc2VsZiNqdW1iZj1jMnBhLmFzc2VydGlvbnMvYzJwYS5oYXNoLmRhdGFkaGFzaFggy/RfaOulpXC91ggTN40HLhwZVfZrCtQGkKBH9E7AFfx0Y2xhaW1fZ2VuZXJhdG9yX2luZm+jZG5hbWVvQW50aHJvcGljIEZpbGVzZ3ZlcnNpb25lMS4wLjBrc3BlY1ZlcnNpb25lMi40LjAAABA4anVtYgAAAChqdW1kYzJjcwARABCAAACqADibcQNjMnBhLnNpZ25hdHVyZQAAABAIY2JvctKEWQISogEmGCFZAgowggIGMIIBjaADAgECAhRA5aAK7sI50L64g/oGQgU9Z1UTADAKBggqhkjOPQQDAzBJMRcwFQYDVQQKEw5BbnRocm9waWMsIFBCQzEuMCwGA1UEAxMlQW50aHJvcGljIENvbnRlbnQgQ3JlZGVudGlhbHMgUm9vdCBDQTAeFw0yNjA4MDcxODQzNTZaFw0yODA4MDYxOTQzNTZaMEQxFzAVBgNVBAoTDkFudGhyb3BpYywgUEJDMSkwJwYDVQQDEyBBbnRocm9waWMgQ2xhdWRlIENvbnRlbnQgU2lnbmluZzBZMBMGByqGSM49AgEGCCqGSM49AwEHA0IABJh6CmvLUBgFFNU0vUKlOVtE6djd17L5SuwX0LemFisBM3dkd/3cyjxFA3Qo5S46fX0/ihY0VZ7mfb9KF703t5OjWDBWMA4GA1UdDwEB/wQEAwIHgDAVBgNVHSUEDjAMBgorBgEEAYPoXgIBMAwGA1UdEwEB/wQCMAAwHwYDVR0jBBgwFoAUzlHiBIFOZFsj+OPEz5o+nMHXXMIwCgYIKoZIzj0EAwMDZwAwZAIwMXMdFJ4BetLLVY7ORuE9noqbbAZOZn/aArXyTwFAZfKrPzxF2vPoJNf1+UCdg1XGAjBwX1zd9WGqYkqmL5SFqw1QySjr1zJfpJM9+1rdDwSPLMOPOjKuiXjoU/pUUeG9RwmhY3BhZFkNngAAAAAAAAAAAAAAAAAAAAAAAAAAAAAAAAAAAAAAAAAAAAAAAAAAAAAAAAAAAAAAAAAAAAAAAAAAAAAAAAAAAAAAAAAAAAAAAAAAAAAAAAAAAAAAAAAAAAAAAAAAAAAAAAAAAAAAAAAAAAAAAAAAAAAAAAAAAAAAAAAAAAAAAAAAAAAAAAAAAAAAAAAAAAAAAAAAAAAAAAAAAAAAAAAAAAAAAAAAAAAAAAAAAAAAAAAAAAAAAAAAAAAAAAAAAAAAAAAAAAAAAAAAAAAAAAAAAAAAAAAAAAAAAAAAAAAAAAAAAAAAAAAAAAAAAAAAAAAAAAAAAAAAAAAAAAAAAAAAAAAAAAAAAAAAAAAAAAAAAAAAAAAAAAAAAAAAAAAAAAAAAAAAAAAAAAAAAAAAAAAAAAAAAAAAAAAAAAAAAAAAAAAAAAAAAAAAAAAAAAAAAAAAAAAAAAAAAAAAAAAAAAAAAAAAAAAAAAAAAAAAAAAAAAAAAAAAAAAAAAAAAAAAAAAAAAAAAAAAAAAAAAAAAAAAAAAAAAAAAAAAAAAAAAAAAAAAAAAAAAAAAAAAAAAAAAAAAAAAAAAAAAAAAAAAAAAAAAAAAAAAAAAAAAAAAAAAAAAAAAAAAAAAAAAAAAAAAAAAAAAAAAAAAAAAAAAAAAAAAAAAAAAAAAAAAAAAAAAAAAAAAAAAAAAAAAAAAAAAAAAAAAAAAAAAAAAAAAAAAAAAAAAAAAAAAAAAAAAAAAAAAAAAAAAAAAAAAAAAAAAAAAAAAAAAAAAAAAAAAAAAAAAAAAAAAAAAAAAAAAAAAAAAAAAAAAAAAAAAAAAAAAAAAAAAAAAAAAAAAAAAAAAAAAAAAAAAAAAAAAAAAAAAAAAAAAAAAAAAAAAAAAAAAAAAAAAAAAAAAAAAAAAAAAAAAAAAAAAAAAAAAAAAAAAAAAAAAAAAAAAAAAAAAAAAAAAAAAAAAAAAAAAAAAAAAAAAAAAAAAAAAAAAAAAAAAAAAAAAAAAAAAAAAAAAAAAAAAAAAAAAAAAAAAAAAAAAAAAAAAAAAAAAAAAAAAAAAAAAAAAAAAAAAAAAAAAAAAAAAAAAAAAAAAAAAAAAAAAAAAAAAAAAAAAAAAAAAAAAAAAAAAAAAAAAAAAAAAAAAAAAAAAAAAAAAAAAAAAAAAAAAAAAAAAAAAAAAAAAAAAAAAAAAAAAAAAAAAAAAAAAAAAAAAAAAAAAAAAAAAAAAAAAAAAAAAAAAAAAAAAAAAAAAAAAAAAAAAAAAAAAAAAAAAAAAAAAAAAAAAAAAAAAAAAAAAAAAAAAAAAAAAAAAAAAAAAAAAAAAAAAAAAAAAAAAAAAAAAAAAAAAAAAAAAAAAAAAAAAAAAAAAAAAAAAAAAAAAAAAAAAAAAAAAAAAAAAAAAAAAAAAAAAAAAAAAAAAAAAAAAAAAAAAAAAAAAAAAAAAAAAAAAAAAAAAAAAAAAAAAAAAAAAAAAAAAAAAAAAAAAAAAAAAAAAAAAAAAAAAAAAAAAAAAAAAAAAAAAAAAAAAAAAAAAAAAAAAAAAAAAAAAAAAAAAAAAAAAAAAAAAAAAAAAAAAAAAAAAAAAAAAAAAAAAAAAAAAAAAAAAAAAAAAAAAAAAAAAAAAAAAAAAAAAAAAAAAAAAAAAAAAAAAAAAAAAAAAAAAAAAAAAAAAAAAAAAAAAAAAAAAAAAAAAAAAAAAAAAAAAAAAAAAAAAAAAAAAAAAAAAAAAAAAAAAAAAAAAAAAAAAAAAAAAAAAAAAAAAAAAAAAAAAAAAAAAAAAAAAAAAAAAAAAAAAAAAAAAAAAAAAAAAAAAAAAAAAAAAAAAAAAAAAAAAAAAAAAAAAAAAAAAAAAAAAAAAAAAAAAAAAAAAAAAAAAAAAAAAAAAAAAAAAAAAAAAAAAAAAAAAAAAAAAAAAAAAAAAAAAAAAAAAAAAAAAAAAAAAAAAAAAAAAAAAAAAAAAAAAAAAAAAAAAAAAAAAAAAAAAAAAAAAAAAAAAAAAAAAAAAAAAAAAAAAAAAAAAAAAAAAAAAAAAAAAAAAAAAAAAAAAAAAAAAAAAAAAAAAAAAAAAAAAAAAAAAAAAAAAAAAAAAAAAAAAAAAAAAAAAAAAAAAAAAAAAAAAAAAAAAAAAAAAAAAAAAAAAAAAAAAAAAAAAAAAAAAAAAAAAAAAAAAAAAAAAAAAAAAAAAAAAAAAAAAAAAAAAAAAAAAAAAAAAAAAAAAAAAAAAAAAAAAAAAAAAAAAAAAAAAAAAAAAAAAAAAAAAAAAAAAAAAAAAAAAAAAAAAAAAAAAAAAAAAAAAAAAAAAAAAAAAAAAAAAAAAAAAAAAAAAAAAAAAAAAAAAAAAAAAAAAAAAAAAAAAAAAAAAAAAAAAAAAAAAAAAAAAAAAAAAAAAAAAAAAAAAAAAAAAAAAAAAAAAAAAAAAAAAAAAAAAAAAAAAAAAAAAAAAAAAAAAAAAAAAAAAAAAAAAAAAAAAAAAAAAAAAAAAAAAAAAAAAAAAAAAAAAAAAAAAAAAAAAAAAAAAAAAAAAAAAAAAAAAAAAAAAAAAAAAAAAAAAAAAAAAAAAAAAAAAAAAAAAAAAAAAAAAAAAAAAAAAAAAAAAAAAAAAAAAAAAAAAAAAAAAAAAAAAAAAAAAAAAAAAAAAAAAAAAAAAAAAAAAAAAAAAAAAAAAAAAAAAAAAAAAAAAAAAAAAAAAAAAAAAAAAAAAAAAAAAAAAAAAAAAAAAAAAAAAAAAAAAAAAAAAAAAAAAAAAAAAAAAAAAAAAAAAAAAAAAAAAAAAAAAAAAAAAAAAAAAAAAAAAAAAAAAAAAAAAAAAAAAAAAAAAAAAAAAAAAAAAAAAAAAAAAAAAAAAAAAAAAAAAAAAAAAAAAAAAAAAAAAAAAAAAAAAAAAAAAAAAAAAAAAAAAAAAAAAAAAAAAAAAAAAAAAAAAAAAAAAAAAAAAAAAAAAAAAAAAAAAAAAAAAAAAAAAAAAAAAAAAAAAAAAAAAAAAAAAAAAAAAAAAAAAAAAAAAAAAAAAAAAAAAAAAAAAAAAAAAAAAAAAAAAAAAAAAAAAAAAAAAAAAAAAAAAAAAAAAAAAAAAAAAAAAAAAAAAAAAAAAAAAAAAAAAAAAAAAAAAAAAAAAAAAAAAAAAAAAAAAAAAAAAAAAAAAAAAAAAAAAAAAAAAAAAAAAAAAAAAAAAAAAAAAAAAAAAAAAAAAAAAAAAAAAAAAAAAAAAAAAAAAAAAAAAAAAAAAAAAAAAAAAAAAAAAAAAAAAAAAAAAAAAAAAAAAAAAAAAAAAAAAAAAAAAAAAAAAAAAAAAAAAAAAAAAAAAAAAAAAAAAAAAAAAAAAAAAAAAAAAAAAAAAAAAAAAAAAAAAAAAAAAAAAAAAAAAAAAAAAAAAAAAAAAAAAAAAAAAAAAAAAAAAAAAAAAAAAAAAAAAAAAAAAAAAAAAAAAAAAAAAAAAAAAAAAAAAAAAAAAAAAAAAAAAAAAAAAAAAAAAAAAAAAAAAAAAAAAAAAAAAAAAAAAAAAAAAAAAAAAAAAAAAAAAAAAAAAAAAAAAAAAAAAAAAAAAAAAAAAAAAAAAAAAAAAAAAAAAAAAAAAAAAAAAAAAAAAAAAAAAAAAAAAAAAAAAAAAAAAAAAAAAAAAAAAAAAAAAAAAAAAAAAAAAAAAAAAAAAAAAAAAAAAAAAAAAAAAAAAAAAAAAAAAAAAAAAAAAAAAAAAAAAAAAAAAAAAAAAAAAAAAAAAAAAAAAAAAAAAAAAAAAAAAAAAAAAAAAAAAAAAAAAAAAAAAAAAAAAAAAAAAAAAAAAAAAAAAAAAAAAAAAAAAAAAAAAAAAAAAAAAAAAAAAAAAAAAAAAAAAAAAAAAAAAAAAAAAAAAAAAAAAAAAAAAAAAAAAAAAAAAAAAAAAAAAAAAAAAAAAAAAAAAAAAAAAAAAAAAAAAAAAAAAAAAAAAAAAAAAAAAAAAAAAAAAAAAAAAAAAAAAAAAAAAAAAAAAAAAAAAAAAAAAAAAAAAAAAAAAAAAAAAAAAAAAAAAAAAAAAAAAAAAAAAAAAAAAAAAAAAAAAAAAAAAAAAAAAAAAAAAAAAAAAAAAAAAAAAAAAAAAAAAAAAAAAAAAAAAAAAAAAAAAAAAAAAAAAAAAAAAAAAAAAAAAAAAAAAAAAAAAAAAAAAAAAAAAAAAAAAAAAAAAAAAAAAAAAAAAAAAAAAAAAAAAAAAAAAAAAAAAAAAAAAAAAAAAAAAAAAAAAAAAAAAAAAAAAAAAAAAAAAAAAAAAAAAAAAAAAAAAAAAAAAAAAAAAAAAAAAAAAAAAAAAAAAAAAAAAAAAAAAAAAAAAAAAAAAAAAAAAAAAAAAAAAAAAAAAAAAAAAAAAAAAAAAAAAAAAAAAAAAAAAAAAAAAAAAAAAAAAAAAAAAAAAAAAAAAAAAAAAAAAAAAAAAAAAAAAAAAAAAAAAAAAAAAAAAAAAAAAAAAAAAAAAAAAAAAAAAAAAAAAAAAAAAAAAAAAAAAAAAAAAAAAAAAAAAAAAAAAAAAAAAAAAAAAAAAAAAAAAAAAAAAAAAAAAAAAAAAAAAAAAAAAAAAAAAAAAAAAAAAAAAAAAAAAAAAAAAAAAAAAAAAAAAAAAAAAAAAAAAAAAAAAAAAAAAAAAAAAAAAAAAAAAAAAAAAAAAAAAAAAAAAAAAAAAAAAAPZYQDXuYhkJ6V7GXxYSDW+kayMtpMIpL2Lr25iHaiJVC1ozoTCAV9IHjVd7sl+omYGsIDRyW0Vcd5pRCdlJtYk53eg=</c2pa:manifest></metadata>
  <title>Ilustrasi Shiba Inu Header - DeX Gaku</title>
  <defs>
    <linearGradient id="bg" x1="0" y1="0" x2="0" y2="1">
      <stop offset="0%" stop-color="#E9F7EB"/>
      <stop offset="100%" stop-color="#C9EBCE"/>
    </linearGradient>
    <linearGradient id="fur" x1="0" y1="0" x2="0" y2="1">
      <stop offset="0%" stop-color="#F4AB5E"/>
      <stop offset="100%" stop-color="#E58F3E"/>
    </linearGradient>
    <linearGradient id="fadeLeft" x1="0" y1="0" x2="1" y2="0">
      <stop offset="0%" stop-color="#EAF7EC" stop-opacity="1"/>
      <stop offset="100%" stop-color="#EAF7EC" stop-opacity="0"/>
    </linearGradient>
    <clipPath id="frame">
      <rect x="0" y="0" width="580" height="680" rx="0"/>
    </clipPath>
  </defs>

  <g clip-path="url(#frame)">
    <!-- Latar -->
    <rect width="580" height="680" fill="url(#bg)"/>

    <!-- Matahari Jepang -->
    <circle cx="330" cy="250" r="215" fill="#FFFFFF" opacity="0.6"/>
    <circle cx="330" cy="250" r="150" fill="#FFFFFF" opacity="0.6"/>

    <!-- Bukit hijau bawah -->
    <path d="M0 600 C120 560 260 570 360 590 C450 606 520 590 580 570 L580 680 L0 680 Z" fill="#8FD196"/>
    <path d="M0 640 C140 610 300 625 400 640 C480 650 540 640 580 630 L580 680 L0 680 Z" fill="#6CBF76"/>

    <!-- Sakura melayang -->
    <g fill="#F8B6C8">
      <path d="M470 90 q10-14 22 0 q-6 14 -22 0z" transform="rotate(20 480 90)"/>
      <path d="M120 170 q10-14 22 0 q-6 14 -22 0z" transform="rotate(-25 130 170)"/>
      <path d="M520 330 q9-12 20 0 q-5 12 -20 0z" transform="rotate(40 530 330)"/>
      <path d="M90 420 q9-12 20 0 q-5 12 -20 0z" transform="rotate(-10 100 420)"/>
      <path d="M400 40 q8-11 18 0 q-5 11 -18 0z" transform="rotate(60 409 40)"/>
      <path d="M215 60 q8-11 18 0 q-5 11 -18 0z" transform="rotate(-40 224 60)"/>
    </g>
    <g fill="#F48FB1" opacity="0.9">
      <circle cx="486" cy="96" r="3"/>
      <circle cx="132" cy="176" r="3"/>
      <circle cx="530" cy="336" r="3"/>
    </g>

    <g transform="translate(-30 22) scale(0.93)">
    <!-- Badan -->
    <path d="M120 700 C120 560 200 500 300 500 C400 500 480 560 480 700 Z" fill="url(#fur)"/>
    <path d="M225 700 C230 600 262 540 300 530 C338 540 370 600 375 700 Z" fill="#FFF3DF"/>

    <!-- Lengan kiri (bawah) -->
    <path d="M150 640 C140 590 170 545 210 545 C236 545 240 585 226 610 C216 630 200 650 190 690 Z" fill="#E58F3E"/>
    <ellipse cx="205" cy="640" rx="22" ry="16" fill="#FFF3DF"/>

    <!-- Lengan kanan melambai (terangkat) -->
    <g transform="translate(38 -6) rotate(-6 430 470)">
      <path d="M400 560 C440 530 470 480 470 430 C470 400 500 400 504 428 C512 490 480 560 440 610 Z" fill="#E58F3E"/>
      <!-- Telapak -->
      <ellipse cx="486" cy="402" rx="36" ry="40" fill="#FFF3DF"/>
      <!-- Jari -->
      <ellipse cx="458" cy="372" rx="10" ry="14" fill="#FFF3DF"/>
      <ellipse cx="480" cy="362" rx="10" ry="15" fill="#FFF3DF"/>
      <ellipse cx="503" cy="364" rx="10" ry="15" fill="#FFF3DF"/>
      <ellipse cx="522" cy="378" rx="9" ry="13" fill="#FFF3DF"/>
      <!-- Bantalan -->
      <ellipse cx="488" cy="410" rx="15" ry="12" fill="#F4A6A0"/>
      <circle cx="470" cy="392" r="4.5" fill="#F4A6A0"/>
      <circle cx="487" cy="384" r="4.5" fill="#F4A6A0"/>
      <circle cx="504" cy="386" r="4.5" fill="#F4A6A0"/>
    </g>
    <!-- Garis gerak lambaian -->
    <g transform="translate(6 0)" stroke="#4CAF50" stroke-width="7" stroke-linecap="round" fill="none" opacity="0.85">
      <path d="M552 330 C566 350 566 380 552 400"/>
      <path d="M572 312 C592 344 592 388 572 420" opacity="0.55"/>
    </g>

    <!-- Syal hijau -->
    <path d="M195 505 C250 545 350 545 405 505 L418 552 C350 594 250 594 182 552 Z" fill="#4CAF50"/>
    <path d="M195 505 C250 545 350 545 405 505 L408 522 C350 562 250 562 192 522 Z" fill="#66C46A"/>
    <!-- Ujung syal -->
    <path d="M232 572 L262 578 L256 640 L222 630 Z" fill="#43A047"/>
    <line x1="230" y1="600" x2="258" y2="606" stroke="#66C46A" stroke-width="5"/>

    <!-- Telinga kiri -->
    <path d="M150 300 L160 150 C160 132 178 124 194 136 L300 208 Z" fill="#E58F3E"/>
    <path d="M176 275 L182 176 L262 226 Z" fill="#F7C9C0"/>
    <!-- Telinga kanan -->
    <path d="M450 300 L440 150 C440 132 422 124 406 136 L300 208 Z" fill="#E58F3E"/>
    <path d="M424 275 L418 176 L338 226 Z" fill="#F7C9C0"/>

    <!-- Kepala -->
    <ellipse cx="300" cy="350" rx="185" ry="160" fill="url(#fur)"/>

    <!-- Pipi & moncong krem -->
    <path d="M120 388 C120 322 185 308 236 344 C272 370 284 412 300 424 C316 412 328 370 364 344 C415 308 480 322 480 388 C480 462 395 508 300 508 C205 508 120 462 120 388 Z" fill="#FFF3DF"/>

    <!-- Tanda dahi -->
    <path d="M300 200 L300 232" stroke="#FFF3DF" stroke-width="10" stroke-linecap="round"/>

    <!-- Alis krem -->
    <ellipse cx="222" cy="290" rx="25" ry="16" fill="#FFF3DF"/>
    <ellipse cx="378" cy="290" rx="25" ry="16" fill="#FFF3DF"/>

    <!-- Mata (mata bahagia) -->
    <ellipse cx="222" cy="342" rx="23" ry="28" fill="#2B1B12"/>
    <ellipse cx="378" cy="342" rx="23" ry="28" fill="#2B1B12"/>
    <circle cx="230" cy="331" r="9" fill="#FFFFFF"/>
    <circle cx="386" cy="331" r="9" fill="#FFFFFF"/>
    <circle cx="214" cy="352" r="4" fill="#FFFFFF" opacity="0.85"/>
    <circle cx="370" cy="352" r="4" fill="#FFFFFF" opacity="0.85"/>

    <!-- Pipi merona -->
    <ellipse cx="164" cy="398" rx="28" ry="16" fill="#F4A6A0" opacity="0.65"/>
    <ellipse cx="436" cy="398" rx="28" ry="16" fill="#F4A6A0" opacity="0.65"/>

    <!-- Hidung -->
    <path d="M270 404 C270 388 284 380 300 380 C316 380 330 388 330 404 C330 422 316 432 300 437 C284 432 270 422 270 404 Z" fill="#2B1B12"/>
    <ellipse cx="290" cy="397" rx="10" ry="5" fill="#FFFFFF" opacity="0.5"/>

    <!-- Mulut terbuka senyum -->
    <path d="M300 437 L300 452" stroke="#2B1B12" stroke-width="7" stroke-linecap="round" fill="none"/>
    <path d="M254 452 C262 500 338 500 346 452 C330 462 270 462 254 452 Z" fill="#7A2E2E" stroke="#2B1B12" stroke-width="6" stroke-linejoin="round"/>
    <path d="M272 480 C282 496 318 496 328 480 C318 472 282 472 272 480 Z" fill="#F08A8A"/>
    <path d="M254 452 C242 448 234 452 228 460" stroke="#2B1B12" stroke-width="6" stroke-linecap="round" fill="none"/>
    <path d="M346 452 C358 448 366 452 372 460" stroke="#2B1B12" stroke-width="6" stroke-linecap="round" fill="none"/>
    </g>

    <!-- Pudar di sisi kiri agar menyatu dengan kartu -->
    <rect x="0" y="0" width="70" height="680" fill="url(#fadeLeft)"/>
  </g>
</svg>
