<svg xmlns="http://www.w3.org/2000/svg" viewBox="0 0 1080 760" width="1080" height="760" preserveAspectRatio="xMidYMax slice" xmlns:c2pa="http://c2pa.org/manifest"><metadata><c2pa:manifest>AAAWgmp1bWIAAAAeanVtZGMycGEAEQAQgAAAqgA4m3EDYzJwYQAAABZcanVtYgAAAEdqdW1kYzJtYQARABCAAACqADibcQN1cm46YzJwYTo2NzU5MmI4Yy0wYjkyLTQ3YjAtYTY2Zi1lZjIwYzllOTFkMjEAAAADl2p1bWIAAAApanVtZGMyYXMAEQAQgAAAqgA4m3EDYzJwYS5hc3NlcnRpb25zAAAAALxqdW1iAAAARGp1bWRjYm9yABEAEIAAAKoAOJtxE2MycGEuaW5ncmVkaWVudC52MwAAAAAYYzJzaP8DqtbadvIm/oIxzbxqQzMAAABwY2JvcqNpZGM6Zm9ybWF0bWltYWdlL3N2Zyt4bWxqaW5zdGFuY2VJRHgseG1wOmlpZDozZGU0NmUwMC0zZmFlLTRiODEtOTMwMC05OGVlODYxMWIzMzNscmVsYXRpb25zaGlwaHBhcmVudE9mAAAB4mp1bWIAAABBanVtZGNib3IAEQAQgAAAqgA4m3ETYzJwYS5hY3Rpb25zLnYyAAAAABhjMnNogL2uoqZhnTI3+JGqE55JpgAAAZljYm9yomdhY3Rpb25zgqJmYWN0aW9ua2MycGEub3BlbmVkanBhcmFtZXRlcnOha2luZ3JlZGllbnRzgaJjdXJseC1zZWxmI2p1bWJmPWMycGEuYXNzZXJ0aW9ucy9jMnBhLmluZ3JlZGllbnQudjNkaGFzaFggJxww/7ZC9Y4nNfc5xz+Debn3iFUqrLjS/7aPPWfH/S+kZmFjdGlvbngdY29tLmFudGhyb3BpYy5jbGF1ZGUucHJvdmlkZWRqcGFyYW1ldGVyc6F4H2NvbS5hbnRocm9waWMub3JpZ2luLWNvbmZpZGVuY2VndW5rbm93bmtkZXNjcmlwdGlvbnhmQ2xhdWRlIHByb3ZpZGVkIHRoaXMgZmlsZSBhdCB0aGUgcmVxdWVzdCBvZiBhIHVzZXIgYW5kIG1heSBoYXZlIGNyZWF0ZWQgb3IgbW9kaWZpZWQgdGhlIGZpbGUgY29udGVudHMubXNvZnR3YXJlQWdlbnShZG5hbWVmQ2xhdWRlcmFsbEFjdGlvbnNJbmNsdWRlZPUAAADIanVtYgAAAEBqdW1kY2JvcgARABCAAACqADibcRNjMnBhLmhhc2guZGF0YQAAAAAYYzJzaLB4ydb5JgtlIfydHQv1ki4AAACAY2JvcqVjYWxnZnNoYTI1NmNwYWRNAAAAAAAAAAAAAAAAAGRoYXNoWCDp3cSFzBZ6bthADuNxU0dI01CJ+xRKUD6zdfINvC09fmRuYW1lbmp1bWJmIG1hbmlmZXN0amV4Y2x1c2lvbnOBomVzdGFydBi9Zmxlbmd0aBkeBAAAAj5qdW1iAAAAJ2p1bWRjMmNsABEAEIAAAKoAOJtxA2MycGEuY2xhaW0udjIAAAACD2Nib3KlY2FsZ2ZzaGEyNTZpc2lnbmF0dXJleE1zZWxmI2p1bWJmPS9jMnBhL3VybjpjMnBhOjY3NTkyYjhjLTBiOTItNDdiMC1hNjZmLWVmMjBjOWU5MWQyMS9jMnBhLnNpZ25hdHVyZWppbnN0YW5jZUlEeCx4bXA6aWlkOjk3MzBmMTllLWMxNmQtNDMyYy1hNTY0LTU1ODc2Mzk4NGExYnJjcmVhdGVkX2Fzc2VydGlvbnODomN1cmx4LXNlbGYjanVtYmY9YzJwYS5hc3NlcnRpb25zL2MycGEuaW5ncmVkaWVudC52M2RoYXNoWCAnHDD/tkL1jic19znHP4N5ufeIVSqsuNL/to89Z8f9L6JjdXJseCpzZWxmI2p1bWJmPWMycGEuYXNzZXJ0aW9ucy9jMnBhLmFjdGlvbnMudjJkaGFzaFgg5PpiZvxrtSImydQdYLNzyNpsuXnEvXBqWno9I7uuz1+iY3VybHgpc2VsZiNqdW1iZj1jMnBhLmFzc2VydGlvbnMvYzJwYS5oYXNoLmRhdGFkaGFzaFgglVWDda8UQkOFGnfyUvgi38IjS8UVYTk6ZJalMJCTAO90Y2xhaW1fZ2VuZXJhdG9yX2luZm+jZG5hbWVvQW50aHJvcGljIEZpbGVzZ3ZlcnNpb25lMS4wLjBrc3BlY1ZlcnNpb25lMi40LjAAABA4anVtYgAAAChqdW1kYzJjcwARABCAAACqADibcQNjMnBhLnNpZ25hdHVyZQAAABAIY2JvctKEWQISogEmGCFZAgowggIGMIIBjaADAgECAhRA5aAK7sI50L64g/oGQgU9Z1UTADAKBggqhkjOPQQDAzBJMRcwFQYDVQQKEw5BbnRocm9waWMsIFBCQzEuMCwGA1UEAxMlQW50aHJvcGljIENvbnRlbnQgQ3JlZGVudGlhbHMgUm9vdCBDQTAeFw0yNjA4MDcxODQzNTZaFw0yODA4MDYxOTQzNTZaMEQxFzAVBgNVBAoTDkFudGhyb3BpYywgUEJDMSkwJwYDVQQDEyBBbnRocm9waWMgQ2xhdWRlIENvbnRlbnQgU2lnbmluZzBZMBMGByqGSM49AgEGCCqGSM49AwEHA0IABJh6CmvLUBgFFNU0vUKlOVtE6djd17L5SuwX0LemFisBM3dkd/3cyjxFA3Qo5S46fX0/ihY0VZ7mfb9KF703t5OjWDBWMA4GA1UdDwEB/wQEAwIHgDAVBgNVHSUEDjAMBgorBgEEAYPoXgIBMAwGA1UdEwEB/wQCMAAwHwYDVR0jBBgwFoAUzlHiBIFOZFsj+OPEz5o+nMHXXMIwCgYIKoZIzj0EAwMDZwAwZAIwMXMdFJ4BetLLVY7ORuE9noqbbAZOZn/aArXyTwFAZfKrPzxF2vPoJNf1+UCdg1XGAjBwX1zd9WGqYkqmL5SFqw1QySjr1zJfpJM9+1rdDwSPLMOPOjKuiXjoU/pUUeG9RwmhY3BhZFkNngAAAAAAAAAAAAAAAAAAAAAAAAAAAAAAAAAAAAAAAAAAAAAAAAAAAAAAAAAAAAAAAAAAAAAAAAAAAAAAAAAAAAAAAAAAAAAAAAAAAAAAAAAAAAAAAAAAAAAAAAAAAAAAAAAAAAAAAAAAAAAAAAAAAAAAAAAAAAAAAAAAAAAAAAAAAAAAAAAAAAAAAAAAAAAAAAAAAAAAAAAAAAAAAAAAAAAAAAAAAAAAAAAAAAAAAAAAAAAAAAAAAAAAAAAAAAAAAAAAAAAAAAAAAAAAAAAAAAAAAAAAAAAAAAAAAAAAAAAAAAAAAAAAAAAAAAAAAAAAAAAAAAAAAAAAAAAAAAAAAAAAAAAAAAAAAAAAAAAAAAAAAAAAAAAAAAAAAAAAAAAAAAAAAAAAAAAAAAAAAAAAAAAAAAAAAAAAAAAAAAAAAAAAAAAAAAAAAAAAAAAAAAAAAAAAAAAAAAAAAAAAAAAAAAAAAAAAAAAAAAAAAAAAAAAAAAAAAAAAAAAAAAAAAAAAAAAAAAAAAAAAAAAAAAAAAAAAAAAAAAAAAAAAAAAAAAAAAAAAAAAAAAAAAAAAAAAAAAAAAAAAAAAAAAAAAAAAAAAAAAAAAAAAAAAAAAAAAAAAAAAAAAAAAAAAAAAAAAAAAAAAAAAAAAAAAAAAAAAAAAAAAAAAAAAAAAAAAAAAAAAAAAAAAAAAAAAAAAAAAAAAAAAAAAAAAAAAAAAAAAAAAAAAAAAAAAAAAAAAAAAAAAAAAAAAAAAAAAAAAAAAAAAAAAAAAAAAAAAAAAAAAAAAAAAAAAAAAAAAAAAAAAAAAAAAAAAAAAAAAAAAAAAAAAAAAAAAAAAAAAAAAAAAAAAAAAAAAAAAAAAAAAAAAAAAAAAAAAAAAAAAAAAAAAAAAAAAAAAAAAAAAAAAAAAAAAAAAAAAAAAAAAAAAAAAAAAAAAAAAAAAAAAAAAAAAAAAAAAAAAAAAAAAAAAAAAAAAAAAAAAAAAAAAAAAAAAAAAAAAAAAAAAAAAAAAAAAAAAAAAAAAAAAAAAAAAAAAAAAAAAAAAAAAAAAAAAAAAAAAAAAAAAAAAAAAAAAAAAAAAAAAAAAAAAAAAAAAAAAAAAAAAAAAAAAAAAAAAAAAAAAAAAAAAAAAAAAAAAAAAAAAAAAAAAAAAAAAAAAAAAAAAAAAAAAAAAAAAAAAAAAAAAAAAAAAAAAAAAAAAAAAAAAAAAAAAAAAAAAAAAAAAAAAAAAAAAAAAAAAAAAAAAAAAAAAAAAAAAAAAAAAAAAAAAAAAAAAAAAAAAAAAAAAAAAAAAAAAAAAAAAAAAAAAAAAAAAAAAAAAAAAAAAAAAAAAAAAAAAAAAAAAAAAAAAAAAAAAAAAAAAAAAAAAAAAAAAAAAAAAAAAAAAAAAAAAAAAAAAAAAAAAAAAAAAAAAAAAAAAAAAAAAAAAAAAAAAAAAAAAAAAAAAAAAAAAAAAAAAAAAAAAAAAAAAAAAAAAAAAAAAAAAAAAAAAAAAAAAAAAAAAAAAAAAAAAAAAAAAAAAAAAAAAAAAAAAAAAAAAAAAAAAAAAAAAAAAAAAAAAAAAAAAAAAAAAAAAAAAAAAAAAAAAAAAAAAAAAAAAAAAAAAAAAAAAAAAAAAAAAAAAAAAAAAAAAAAAAAAAAAAAAAAAAAAAAAAAAAAAAAAAAAAAAAAAAAAAAAAAAAAAAAAAAAAAAAAAAAAAAAAAAAAAAAAAAAAAAAAAAAAAAAAAAAAAAAAAAAAAAAAAAAAAAAAAAAAAAAAAAAAAAAAAAAAAAAAAAAAAAAAAAAAAAAAAAAAAAAAAAAAAAAAAAAAAAAAAAAAAAAAAAAAAAAAAAAAAAAAAAAAAAAAAAAAAAAAAAAAAAAAAAAAAAAAAAAAAAAAAAAAAAAAAAAAAAAAAAAAAAAAAAAAAAAAAAAAAAAAAAAAAAAAAAAAAAAAAAAAAAAAAAAAAAAAAAAAAAAAAAAAAAAAAAAAAAAAAAAAAAAAAAAAAAAAAAAAAAAAAAAAAAAAAAAAAAAAAAAAAAAAAAAAAAAAAAAAAAAAAAAAAAAAAAAAAAAAAAAAAAAAAAAAAAAAAAAAAAAAAAAAAAAAAAAAAAAAAAAAAAAAAAAAAAAAAAAAAAAAAAAAAAAAAAAAAAAAAAAAAAAAAAAAAAAAAAAAAAAAAAAAAAAAAAAAAAAAAAAAAAAAAAAAAAAAAAAAAAAAAAAAAAAAAAAAAAAAAAAAAAAAAAAAAAAAAAAAAAAAAAAAAAAAAAAAAAAAAAAAAAAAAAAAAAAAAAAAAAAAAAAAAAAAAAAAAAAAAAAAAAAAAAAAAAAAAAAAAAAAAAAAAAAAAAAAAAAAAAAAAAAAAAAAAAAAAAAAAAAAAAAAAAAAAAAAAAAAAAAAAAAAAAAAAAAAAAAAAAAAAAAAAAAAAAAAAAAAAAAAAAAAAAAAAAAAAAAAAAAAAAAAAAAAAAAAAAAAAAAAAAAAAAAAAAAAAAAAAAAAAAAAAAAAAAAAAAAAAAAAAAAAAAAAAAAAAAAAAAAAAAAAAAAAAAAAAAAAAAAAAAAAAAAAAAAAAAAAAAAAAAAAAAAAAAAAAAAAAAAAAAAAAAAAAAAAAAAAAAAAAAAAAAAAAAAAAAAAAAAAAAAAAAAAAAAAAAAAAAAAAAAAAAAAAAAAAAAAAAAAAAAAAAAAAAAAAAAAAAAAAAAAAAAAAAAAAAAAAAAAAAAAAAAAAAAAAAAAAAAAAAAAAAAAAAAAAAAAAAAAAAAAAAAAAAAAAAAAAAAAAAAAAAAAAAAAAAAAAAAAAAAAAAAAAAAAAAAAAAAAAAAAAAAAAAAAAAAAAAAAAAAAAAAAAAAAAAAAAAAAAAAAAAAAAAAAAAAAAAAAAAAAAAAAAAAAAAAAAAAAAAAAAAAAAAAAAAAAAAAAAAAAAAAAAAAAAAAAAAAAAAAAAAAAAAAAAAAAAAAAAAAAAAAAAAAAAAAAAAAAAAAAAAAAAAAAAAAAAAAAAAAAAAAAAAAAAAAAAAAAAAAAAAAAAAAAAAAAAAAAAAAAAAAAAAAAAAAAAAAAAAAAAAAAAAAAAAAAAAAAAAAAAAAAAAAAAAAAAAAAAAAAAAAAAAAAAAAAAAAAAAAAAAAAAAAAAAAAAAAAAAAAAAAAAAAAAAAAAAAAAAAAAAAAAAAAAAAAAAAAAAAAAAAAAAAAAAAAAAAAAAAAAAAAAAAAAAAAAAAAAAAAAAAAAAAAAAAAAAAAAAAAAAAAAAAAAAAAAAAAAAAAAAAAAAAAAAAAAAAAAAAAAAAAAAAAAAAAAAAAAAAAAAAAAAAAAAAAAAAAAAAAAAAAAAAAAAAAAAAAAAAAAAAAAAAAAAAAAAAAAAAAAAAAAAAAAAAAAAAAAAAAAAAAAAAAAAAAAAAAAAAAAAAAAAAAAAAAAAAAAAAAAAAAAAAAAAAAAAAAAAAAAAAAAAAAAAAAAAAAAAAAAAAAAAAAAAAAAAAAAAAAAAAAAAAAAAAAAAAAAAAAAAAAAAAAAAAAAAAAAAAAAAAAAAAAAAAAAAAAAAAAAAAAAAAAAAAAAAAAAAAAAAAAAAAAAAAAAAAAAAAAAAAAAAAAAAAAAAAAAAAAAAAAAAAAAAAAAAAAAAAAAAAAAAAAAAAAAAAAAAAAAAAAAAAAAAAAAAAAAAAAAAAAAAAAAAAAAAAAAAAAAAAAAAAAAAAAAAAAAAAAAAAAAAAAAAAAAAAAAAAAAAAAAAAAAAAAAAAAAAAAAAAAAAAAAAAAAAAAAAAAAAAAAAAAAAAAAAAAAAAAAAAAAAAAAAAAAAAAAAAAAAAAAAAAAAAAAAAAAAAAAAAAAAAAAAAAAAAAAAAAAAAAAAAAAAAAAAAAAAAAAAAAAAAAAAAAAAAAAAAAAAAAAAAAAAAAAAAAAAAAAAAAAAAAAAAAAAAAAAAAAAAAAAAAAAAAAAAAAAAAAAAAAAAAAAAAAAAAAAAAAAAAAAAAAAAAAAAAAAAAAAAAAAAAAAAAAAAAAAAAAAAAAAAAAAAAAAAAAAAAAAAAAAAAAAAAAAAAAAAAAAAAAAAAAAAAAAAAAAAAAAAAAAAAAAAAAAAAAAAAAAAAAAAAAAAAAAAAAAAAAAAAAAAAAAAAAAAAAAAAAAAAAAAAAAAAAAAAAAAAAAAAAAAAAAAAAAAAAAAAAAAAAAAAAAAAAAAAAAAAAAAAAAAAAAAAAAAAAAAAAAAAAAAAAAAAAAAAAAAAAAAAAAAAAAAAAAAAAAAAAAAAAAAAAAAAAAAAAAAAAAAAAAAAAAAAAAAAAAAAAAAAAAAAAAAAAAAAAAAAAAAAAAAAAAAAAAAAAAAAAAAAAAAAAAAAAAAAAAAAAAAAAAAAAAAAAAAAAAAAAAAAAAAAAAAAAAAAAAAAAAAAAAAAAAAAAAAAAAAAAAAAAAAAAAAAAAAAAAAAAAAAAAAAAAAAAAAAAAAAAAAAAAAAAAAAAAAAAAAAAAAAAAAAAAAAAAAAAAAAAAAAAAAAAAAAAAAAAAAAAAAAAAAAAAAAAAAAAAAAAAAAAAAAAAAAAAAAAAAAAAAAAAAAAAAAAAAAAAAAAAAAAAAAAAAAAAAAAAAAAAAAAAAAAAAAAAAAAAAAAAAAAAAAAAAAAAAAAAAAAAAAAAAAAAAAAAAAAAAAAAAAAAAAAAAAAAAAAAAAAAAAAPZYQFknB08wcd9xYpO2m+9XAXFTEzL0TwxPgYti0PJeJUcSatY197lN4QXVi0P2DmNDa0x9Z1/qYALk74x3n5jDAbc=</c2pa:manifest></metadata>
  <title>Latar header Kanji - kaligrafi, torii, bambu, seigaiha</title>
  <defs>
    <linearGradient id="bg" x1="0" y1="0" x2="0" y2="1">
      <stop offset="0%" stop-color="#FFF6EE"/><stop offset="55%" stop-color="#FDE6DA"/><stop offset="100%" stop-color="#F9D5C8"/>
    </linearGradient>
    <linearGradient id="mist" x1="0" y1="0" x2="0" y2="1">
      <stop offset="0%" stop-color="#FFF3EA" stop-opacity="0"/><stop offset="100%" stop-color="#FFF3EA" stop-opacity="0.9"/>
    </linearGradient>
    <linearGradient id="seaFade" x1="0" y1="0" x2="0" y2="1">
      <stop offset="0%" stop-color="#F9D9CB" stop-opacity="1"/><stop offset="60%" stop-color="#F9D9CB" stop-opacity="0"/>
    </linearGradient>
    <pattern id="seigaiha" width="64" height="32" patternUnits="userSpaceOnUse">
      <g fill="none" stroke="#E7867A" stroke-width="2.4" opacity="0.75">
        <circle cx="32" cy="32" r="30"/><circle cx="32" cy="32" r="22"/><circle cx="32" cy="32" r="14"/>
        <circle cx="0" cy="16" r="30"/><circle cx="0" cy="16" r="22"/><circle cx="0" cy="16" r="14"/>
        <circle cx="64" cy="16" r="30"/><circle cx="64" cy="16" r="22"/><circle cx="64" cy="16" r="14"/>
      </g>
    </pattern>
    <filter id="soft" x="-25%" y="-25%" width="150%" height="160%">
      <feDropShadow dx="0" dy="5" stdDeviation="5" flood-color="#5A3A2A" flood-opacity="0.22"/>
    </filter>
  </defs>

  <rect width="1080" height="760" fill="url(#bg)"/>

  <!-- Matahari merah lembut + enso, di belakang judul -->
  <circle cx="540" cy="250" r="205" fill="#F26B5B" opacity="0.14"/>
  <circle cx="540" cy="250" r="140" fill="#FFFFFF" opacity="0.35"/>
  <circle cx="540" cy="250" r="268" fill="none" stroke="#2E211C" stroke-opacity="0.07" stroke-width="26" stroke-linecap="round" stroke-dasharray="1400 284" transform="rotate(-70 540 250)"/>

  <!-- Gunung tinta -->
  <path d="M-10 480 L120 402 L210 442 L340 350 L470 432 L560 382 L700 452 L820 388 L960 440 L1090 402 L1090 560 L-10 560Z" fill="#D8C1B8" opacity="0.5"/>
  <path d="M-10 520 L160 468 L300 506 L470 458 L640 512 L800 474 L1090 520 L1090 600 L-10 600Z" fill="#C2A79E" opacity="0.45"/>
  <rect x="0" y="400" width="1080" height="200" fill="url(#mist)"/>

  <!-- Huruf kanji samar -->
  <g font-family="'Noto Sans JP','Hiragino Sans','Yu Gothic',sans-serif" font-weight="800" fill="#2E211C" opacity="0.06">
    <text x="470" y="150" font-size="120" transform="rotate(-8 470 150)">日</text>
    <text x="600" y="140" font-size="110" transform="rotate(9 600 140)">月</text>
    <text x="120" y="720" font-size="90" transform="rotate(-6 120 720)">山</text>
    <text x="880" y="730" font-size="90" transform="rotate(6 880 730)">水</text>
  </g>

  <!-- Ombak seigaiha di strip bawah -->
  <rect x="0" y="632" width="1080" height="128" fill="url(#seigaiha)"/>
  <rect x="0" y="632" width="1080" height="128" fill="url(#seaFade)"/>

  <!-- Bambu kiri (naik dari bawah, menyelinap di belakang kartu) -->
  <g>
  <rect x="35.0" y="-20" width="22" height="810" rx="11.0" fill="#8DBA8B"/>
  <rect x="49.666666666666664" y="-20" width="7.333333333333333" height="810" fill="#5E9463" opacity="0.25"/>
  <rect x="33.0" y="40" width="26" height="9" rx="4" fill="#5E9463"/>
  <path d="M0 0 C22 -11 62 -13 96 0 C62 13 22 11 0 0Z" fill="#8DBA8B" transform="translate(46 44) rotate(202) scale(0.85)"/>
  <rect x="33.0" y="134" width="26" height="9" rx="4" fill="#5E9463"/>
  <path d="M0 0 C22 -11 62 -13 96 0 C62 13 22 11 0 0Z" fill="#5E9463" transform="translate(46 138) rotate(-18) scale(0.7523523819186813)"/>
  <rect x="33.0" y="232" width="26" height="9" rx="4" fill="#5E9463"/>
  <path d="M0 0 C22 -11 62 -13 96 0 C62 13 22 11 0 0Z" fill="#5E9463" transform="translate(46 236) rotate(194) scale(0.655398103156463)"/>
  <rect x="33.0" y="328" width="26" height="9" rx="4" fill="#5E9463"/>
  <path d="M0 0 C22 -11 62 -13 96 0 C62 13 22 11 0 0Z" fill="#8DBA8B" transform="translate(46 332) rotate(-17) scale(0.7889648160650405)"/>
  <rect x="33.0" y="413" width="26" height="9" rx="4" fill="#5E9463"/>
  <path d="M0 0 C22 -11 62 -13 96 0 C62 13 22 11 0 0Z" fill="#5E9463" transform="translate(46 417) rotate(191) scale(0.7339779458270995)"/>
  <rect x="33.0" y="497" width="26" height="9" rx="4" fill="#5E9463"/>
  <path d="M0 0 C22 -11 62 -13 96 0 C62 13 22 11 0 0Z" fill="#5E9463" transform="translate(46 501) rotate(-30) scale(0.7616080525733036)"/>
  <rect x="33.0" y="597" width="26" height="9" rx="4" fill="#5E9463"/>
  <path d="M0 0 C22 -11 62 -13 96 0 C62 13 22 11 0 0Z" fill="#8DBA8B" transform="translate(46 601) rotate(189) scale(0.7786309517522009)"/>
  <rect x="33.0" y="689" width="26" height="9" rx="4" fill="#5E9463"/>
  <path d="M0 0 C22 -11 62 -13 96 0 C62 13 22 11 0 0Z" fill="#5E9463" transform="translate(46 693) rotate(-18) scale(0.7961767600601521)"/>
  <rect x="99.5" y="40" width="17" height="750" rx="8.5" fill="#9CC79A"/>
  <rect x="110.83333333333333" y="40" width="5.666666666666667" height="750" fill="#6BA070" opacity="0.25"/>
  <rect x="97.5" y="100" width="21" height="9" rx="4" fill="#6BA070"/>
  <path d="M0 0 C22 -11 62 -13 96 0 C62 13 22 11 0 0Z" fill="#9CC79A" transform="translate(108 104) rotate(208) scale(0.6472482285420487)"/>
  <rect x="97.5" y="180" width="21" height="9" rx="4" fill="#6BA070"/>
  <path d="M0 0 C22 -11 62 -13 96 0 C62 13 22 11 0 0Z" fill="#6BA070" transform="translate(108 184) rotate(-16) scale(0.6189494760175447)"/>
  <rect x="97.5" y="261" width="21" height="9" rx="4" fill="#6BA070"/>
  <path d="M0 0 C22 -11 62 -13 96 0 C62 13 22 11 0 0Z" fill="#6BA070" transform="translate(108 265) rotate(194) scale(0.7)"/>
  <rect x="97.5" y="360" width="21" height="9" rx="4" fill="#6BA070"/>
  <path d="M0 0 C22 -11 62 -13 96 0 C62 13 22 11 0 0Z" fill="#9CC79A" transform="translate(108 364) rotate(-32) scale(0.7)"/>
  <rect x="97.5" y="450" width="21" height="9" rx="4" fill="#6BA070"/>
  <path d="M0 0 C22 -11 62 -13 96 0 C62 13 22 11 0 0Z" fill="#6BA070" transform="translate(108 454) rotate(202) scale(0.7)"/>
  <rect x="97.5" y="536" width="21" height="9" rx="4" fill="#6BA070"/>
  <path d="M0 0 C22 -11 62 -13 96 0 C62 13 22 11 0 0Z" fill="#6BA070" transform="translate(108 540) rotate(-16) scale(0.6700936912900769)"/>
  <rect x="97.5" y="625" width="21" height="9" rx="4" fill="#6BA070"/>
  <path d="M0 0 C22 -11 62 -13 96 0 C62 13 22 11 0 0Z" fill="#9CC79A" transform="translate(108 629) rotate(203) scale(0.6013781316484128)"/>
  <rect x="97.5" y="707" width="21" height="9" rx="4" fill="#6BA070"/>
  <path d="M0 0 C22 -11 62 -13 96 0 C62 13 22 11 0 0Z" fill="#6BA070" transform="translate(108 711) rotate(-18) scale(0.7)"/>
  </g>

  <!-- Torii kanan: atapnya terlihat di atas kartu, kakinya tenggelam di balik kartu -->
  <g transform="translate(958 312) scale(0.72)">
    <rect x="-80" y="-56" width="24" height="232" fill="#D9422F"/>
    <rect x="56" y="-56" width="24" height="232" fill="#D9422F"/>
    <rect x="-106" y="-14" width="212" height="15" rx="2" fill="#D9422F"/>
    <rect x="-136" y="-74" width="272" height="17" fill="#B8321F"/>
    <path d="M-160 -106 Q0 -72 160 -106 L150 -80 Q0 -48 -150 -80Z" fill="#2E211C"/>
    <rect x="-9" y="-56" width="18" height="42" fill="#B8321F"/>
  </g>

  <!-- Batu tinta + kuas (di strip bawah) -->
  <g transform="translate(250 706)">
    <rect x="-72" y="-2" width="150" height="52" rx="12" fill="#3B2C27"/>
    <rect x="-66" y="-6" width="138" height="30" rx="12" fill="#4B3A34"/>
    <ellipse cx="6" cy="8" rx="44" ry="9" fill="#150F0D"/>
    <ellipse cx="-8" cy="5" rx="13" ry="3" fill="#FFFFFF" opacity="0.18"/>
    <g transform="translate(50 2) rotate(-18)">
      <rect x="0" y="-6" width="150" height="12" rx="6" fill="#B98A55"/>
      <rect x="10" y="-6" width="10" height="12" fill="#8A6234"/>
      <rect x="-16" y="-7.5" width="18" height="15" rx="2" fill="#EAD9B8"/>
      <path d="M-16 -7 Q-70 -5 -94 0 Q-70 5 -16 7Z" fill="#2E211C"/>
    </g>
  </g>

  <!-- Stempel merah (hanko), di atas torii -->
  <g transform="translate(990 92) rotate(8) scale(0.9)" filter="url(#soft)">
    <rect x="-38" y="-38" width="76" height="76" rx="9" fill="#D9422F"/>
    <rect x="-31" y="-31" width="62" height="62" rx="5" fill="none" stroke="#FFF" stroke-width="2.5" opacity="0.85"/>
    <text x="0" y="17" text-anchor="middle" font-family="'Noto Sans JP','Hiragino Sans','Yu Gothic',sans-serif" font-size="46" font-weight="800" fill="#FFFFFF">字</text>
  </g>

  <!-- Ubin kanji: hanya di zona bebas (atas, samping judul, strip bawah) -->
  <g filter="url(#soft)" transform="translate(440 84) rotate(-9) scale(0.8)">
    <rect x="-46" y="-52" width="92" height="104" rx="14" fill="#FFFDF9" stroke="#F6C08A" stroke-width="5"/>
    <rect x="-46" y="-52" width="92" height="20" rx="14" fill="#F28C38"/>
    <rect x="-46" y="-42" width="92" height="10" fill="#F28C38"/>
    <text x="0" y="24" text-anchor="middle" font-family="'Noto Sans JP','Hiragino Sans','Yu Gothic',sans-serif" font-size="58" font-weight="800" fill="#2E211C">日</text>
    <text x="0" y="44" text-anchor="middle" font-family="'Noto Sans JP','Hiragino Sans','Yu Gothic',sans-serif" font-size="13" font-weight="700" fill="#F28C38">にち</text>
  </g>
  <g filter="url(#soft)" transform="translate(662 90) rotate(8) scale(0.76)">
    <rect x="-46" y="-52" width="92" height="104" rx="14" fill="#FFFDF9" stroke="#A9D3A6" stroke-width="5"/>
    <rect x="-46" y="-52" width="92" height="20" rx="14" fill="#4FA35A"/>
    <rect x="-46" y="-42" width="92" height="10" fill="#4FA35A"/>
    <text x="0" y="24" text-anchor="middle" font-family="'Noto Sans JP','Hiragino Sans','Yu Gothic',sans-serif" font-size="58" font-weight="800" fill="#2E211C">木</text>
    <text x="0" y="44" text-anchor="middle" font-family="'Noto Sans JP','Hiragino Sans','Yu Gothic',sans-serif" font-size="13" font-weight="700" fill="#4FA35A">き</text>
  </g>
  <g filter="url(#soft)" transform="translate(236 206) rotate(-7) scale(0.6)">
    <rect x="-46" y="-52" width="92" height="104" rx="14" fill="#FFFDF9" stroke="#F2A79C" stroke-width="5"/>
    <rect x="-46" y="-52" width="92" height="20" rx="14" fill="#D9422F"/>
    <rect x="-46" y="-42" width="92" height="10" fill="#D9422F"/>
    <text x="0" y="24" text-anchor="middle" font-family="'Noto Sans JP','Hiragino Sans','Yu Gothic',sans-serif" font-size="58" font-weight="800" fill="#2E211C">火</text>
    <text x="0" y="44" text-anchor="middle" font-family="'Noto Sans JP','Hiragino Sans','Yu Gothic',sans-serif" font-size="13" font-weight="700" fill="#D9422F">ひ</text>
  </g>
  <g filter="url(#soft)" transform="translate(792 196) rotate(7) scale(0.54)">
    <rect x="-46" y="-52" width="92" height="104" rx="14" fill="#FFFDF9" stroke="#9BC4EE" stroke-width="5"/>
    <rect x="-46" y="-52" width="92" height="20" rx="14" fill="#3F86D6"/>
    <rect x="-46" y="-42" width="92" height="10" fill="#3F86D6"/>
    <text x="0" y="24" text-anchor="middle" font-family="'Noto Sans JP','Hiragino Sans','Yu Gothic',sans-serif" font-size="58" font-weight="800" fill="#2E211C">人</text>
    <text x="0" y="44" text-anchor="middle" font-family="'Noto Sans JP','Hiragino Sans','Yu Gothic',sans-serif" font-size="13" font-weight="700" fill="#3F86D6">ひと</text>
  </g>
  <g filter="url(#soft)" transform="translate(690 706) rotate(6) scale(0.5)">
    <rect x="-46" y="-52" width="92" height="104" rx="14" fill="#FFFDF9" stroke="#B9A3E8" stroke-width="5"/>
    <rect x="-46" y="-52" width="92" height="20" rx="14" fill="#9C6FD6"/>
    <rect x="-46" y="-42" width="92" height="10" fill="#9C6FD6"/>
    <text x="0" y="24" text-anchor="middle" font-family="'Noto Sans JP','Hiragino Sans','Yu Gothic',sans-serif" font-size="58" font-weight="800" fill="#2E211C">水</text>
    <text x="0" y="44" text-anchor="middle" font-family="'Noto Sans JP','Hiragino Sans','Yu Gothic',sans-serif" font-size="13" font-weight="700" fill="#9C6FD6">みず</text>
  </g>
  <g filter="url(#soft)" transform="translate(560 716) rotate(-8) scale(0.46)">
    <rect x="-46" y="-52" width="92" height="104" rx="14" fill="#FFFDF9" stroke="#F4A6C4" stroke-width="5"/>
    <rect x="-46" y="-52" width="92" height="20" rx="14" fill="#F48FB1"/>
    <rect x="-46" y="-42" width="92" height="10" fill="#F48FB1"/>
    <text x="0" y="24" text-anchor="middle" font-family="'Noto Sans JP','Hiragino Sans','Yu Gothic',sans-serif" font-size="58" font-weight="800" fill="#2E211C">山</text>
    <text x="0" y="44" text-anchor="middle" font-family="'Noto Sans JP','Hiragino Sans','Yu Gothic',sans-serif" font-size="13" font-weight="700" fill="#F48FB1">やま</text>
  </g>

  <path d="M0 -12 l4 9 l10 1 l-7 7 l2 10 l-9 -5 l-9 5 l2 -10 l-7 -7 l10 -1z" fill="#FFD86B" transform="translate(560 52) scale(1)"/><path d="M0 -12 l4 9 l10 1 l-7 7 l2 10 l-9 -5 l-9 5 l2 -10 l-7 -7 l10 -1z" fill="#FFD86B" transform="translate(330 60) scale(0.8)"/><path d="M0 -12 l4 9 l10 1 l-7 7 l2 10 l-9 -5 l-9 5 l2 -10 l-7 -7 l10 -1z" fill="#FFD86B" transform="translate(880 176) scale(0.8)"/><path d="M0 -12 l4 9 l10 1 l-7 7 l2 10 l-9 -5 l-9 5 l2 -10 l-7 -7 l10 -1z" fill="#FFD86B" transform="translate(60 330) scale(0.7)"/><path d="M0 -12 l4 9 l10 1 l-7 7 l2 10 l-9 -5 l-9 5 l2 -10 l-7 -7 l10 -1z" fill="#FFD86B" transform="translate(450 726) scale(0.7)"/><path d="M0 -12 l4 9 l10 1 l-7 7 l2 10 l-9 -5 l-9 5 l2 -10 l-7 -7 l10 -1z" fill="#FFD86B" transform="translate(1000 690) scale(0.8)"/>
  <path d="M0 0 q8-11 18 0 q-6 11 -18 0z" fill="#F4A7B9" transform="translate(360 40) rotate(20)"/><path d="M0 0 q8-11 18 0 q-6 11 -18 0z" fill="#F4A7B9" transform="translate(560 146) rotate(-25)"/><path d="M0 0 q8-11 18 0 q-6 11 -18 0z" fill="#F4A7B9" transform="translate(890 60) rotate(35)"/><path d="M0 0 q8-11 18 0 q-6 11 -18 0z" fill="#F4A7B9" transform="translate(150 180) rotate(15)"/><path d="M0 0 q8-11 18 0 q-6 11 -18 0z" fill="#F4A7B9" transform="translate(1040 340) rotate(30)"/>
  <path d="M0 0 q8-11 18 0 q-6 11 -18 0z" fill="#F4A7B9" transform="translate(60 430) rotate(-20)"/><path d="M0 0 q8-11 18 0 q-6 11 -18 0z" fill="#F4A7B9" transform="translate(470 690) rotate(25)"/><path d="M0 0 q8-11 18 0 q-6 11 -18 0z" fill="#F4A7B9" transform="translate(620 736) rotate(-35)"/><path d="M0 0 q8-11 18 0 q-6 11 -18 0z" fill="#F4A7B9" transform="translate(880 706) rotate(10)"/><path d="M0 0 q8-11 18 0 q-6 11 -18 0z" fill="#F4A7B9" transform="translate(20 700) rotate(25)"/><path d="M0 0 q8-11 18 0 q-6 11 -18 0z" fill="#F4A7B9" transform="translate(1020 740) rotate(-15)"/>
</svg>
